<svg xmlns="http://www.w3.org/2000/svg" width="32" height="32" viewBox="0 0 32 32">
  <!-- 슬러시 컵 아이콘 -->
  <!-- 빨대 -->
  <rect x="18" y="2" width="2.5" height="16" rx="1" fill="#3B82F6" transform="rotate(8, 19, 10)"/>
  <!-- 컵 뚜껑 (돔형) -->
  <ellipse cx="16" cy="12" rx="10" ry="3.5" fill="#60A5FA"/>
  <!-- 슬러시 윗부분 (볼록한 얼음) -->
  <path d="M6.5 12 C8 8, 12 6.5, 16 7.5 C20 6, 24 8, 25.5 12" fill="#93C5FD"/>
  <!-- 컵 본체 (아래로 좁아지는 형태) -->
  <path d="M6 13 L9.5 29 C9.7 29.8 10.4 30 11 30 L21 30 C21.6 30 22.3 29.8 22.5 29 L26 13 Z" fill="#3B82F6"/>
  <!-- 컵 하이라이트 -->
  <path d="M8 13 L10.5 27 C10.6 27.5 11 27.5 11.2 27.5 L13 27.5 L10 13 Z" fill="#60A5FA" opacity="0.5"/>
</svg>
